<svg id="Capa_1" enable-background="new 0 0 511.995 511.995" height="512" viewBox="0 0 511.995 511.995" width="512" xmlns="http://www.w3.org/2000/svg"><g><g><g><circle cx="187.034" cy="187.381" fill="#c8d1da" r="179.534"/></g><g><path d="m203.367 350.582c-99.154 0-179.534-80.38-179.534-179.534 0-45.42 16.875-86.894 44.687-118.514-37.407 32.902-61.02 81.114-61.02 134.847 0 99.154 80.38 179.534 179.534 179.534 53.733 0 101.945-23.613 134.847-61.02-31.62 27.812-73.094 44.687-118.514 44.687z" fill="#92a2b5"/></g><g><circle cx="187.034" cy="187.381" fill="#fff" r="149"/></g><g><path d="m202.7 320.715c-82.291 0-149-66.71-149-149 0-37.158 13.605-71.136 36.1-97.233-31.698 27.324-51.767 67.767-51.767 112.9 0 82.291 66.71 149 149 149 45.133 0 85.576-20.069 112.9-51.767-26.096 22.495-60.075 36.1-97.233 36.1z" fill="#cad8eb"/></g><g><path d="m504.491 442.804-163.324-163.324-59.906 60.733 162.91 162.911 36.143.942 24.181-24.181z" fill="#5fa6b0"/></g><g><path d="m314.473 343.355 44.974-45.595-18.28-18.28-59.906 60.733 162.91 162.911 30.876.805z" fill="#3d7077"/></g><g><path d="m389.496 339.661h15v76.366h-15z" fill="#fff" transform="matrix(.707 -.707 .707 .707 -150.898 391.387)"/></g><g><path d="m347.932 329.12h15v14.319h-15z" fill="#fff" transform="matrix(.707 -.707 .707 .707 -133.682 349.823)"/></g><g><path d="m158.162 157.676v-74.833h60.334v74.833h74.833v60.334h-74.833v74.833h-60.334v-75.668h-74.833v-59.499z" fill="#faef93"/></g></g><g><path d="m81.575 51.451-9.203-11.845c-4.097 3.183-8.114 6.582-11.938 10.1l10.156 11.039c3.519-3.238 7.215-6.365 10.985-9.294z"/><path d="m30.533 187.381c0 86.294 70.206 156.5 156.5 156.5s156.5-70.206 156.5-156.5c0-45.432-19.712-88.563-54.081-118.335l-9.82 11.338c31.077 26.92 48.901 65.919 48.901 106.997 0 78.023-63.477 141.5-141.5 141.5s-141.5-63.477-141.5-141.5 63.477-141.5 141.5-141.5c28.357 0 55.712 8.355 79.109 24.162l8.396-12.43c-25.885-17.488-56.145-26.732-87.505-26.732-86.294 0-156.5 70.206-156.5 156.5z"/><path d="m511.991 439.697-161.502-161.502c15.009-26.908 23.578-57.877 23.578-90.814 0-103.131-83.903-187.034-187.034-187.034-35.782 0-70.561 10.138-100.579 29.319l8.077 12.64c27.601-17.636 59.587-26.958 92.501-26.958 94.86 0 172.034 77.174 172.034 172.034s-77.174 172.034-172.034 172.034-172.032-77.175-172.032-172.035c0-42.685 15.743-83.623 44.328-115.271l-11.132-10.054c-31.079 34.411-48.196 78.918-48.196 125.325 0 103.131 83.903 187.034 187.034 187.034 33.835 0 65.6-9.031 93.012-24.809l160.937 160.937 42.356 1.104 28.655-28.656zm-34.702 56.788-29.931-.78-154.32-154.32c19.436-13.42 36.222-30.414 49.392-50.034l154.56 154.56.004 30.868z"/><path d="m225.996 300.343v-74.833h14.499v-15h-45v15h15.501v59.833h-45.333v-90.501h-15v15.668h-59.833v-45.334h29.666v-15h-44.666v75.334h74.833v74.833z"/><path d="m255.495 210.51v15h45.334v-75.334h-74.833v-74.833h-75.333v74.833h-15.167v15h44.999v-15h-14.832v-59.833h45.333v89.499h15v-14.666h59.833v45.334z"/></g></g></svg>