<svg id="Flat" height="512" viewBox="0 0 512 512" width="512" xmlns="http://www.w3.org/2000/svg"><path d="m40 72h448v416h-448z" fill="#c3c6c7"/><path d="m24 56h432v400h-432z" fill="#e9eef2"/><path d="m24 56h432v96h-432z" fill="#eb423f"/><g fill="#6a7073"><path d="m112 56v-8a8 8 0 0 0 -16 0v32a8.009 8.009 0 0 0 8 8 8 8 0 0 1 0 16 24.028 24.028 0 0 1 -24-24v-32a24 24 0 0 1 48 0v8z"/><path d="m176 56v-8a8 8 0 0 0 -16 0v32a8.009 8.009 0 0 0 8 8 8 8 0 0 1 0 16 24.028 24.028 0 0 1 -24-24v-32a24 24 0 0 1 48 0v8z"/><path d="m320 56v-8a8 8 0 0 0 -16 0v32a8.009 8.009 0 0 0 8 8 8 8 0 0 1 0 16 24.028 24.028 0 0 1 -24-24v-32a24 24 0 0 1 48 0v8z"/><path d="m384 56v-8a8 8 0 0 0 -16 0v32a8.009 8.009 0 0 0 8 8 8 8 0 0 1 0 16 24.028 24.028 0 0 1 -24-24v-32a24 24 0 0 1 48 0v8z"/></g><path d="m96 248h288v144h-288z" fill="#f89f00"/><path d="m352 248v144c0-17.67-25.07-32-56-32-20.37 0-38.21 6.22-48 15.51-5.08 4.81-8 10.46-8 16.49 0-6.03-2.92-11.68-8-16.49-9.79-9.29-27.63-15.51-48-15.51-30.93 0-56 14.33-56 32v-144c0-17.67 25.07-32 56-32 20.37 0 38.21 6.22 48 15.51 5.08 4.81 8 10.46 8 16.49 0-6.03 2.92-11.68 8-16.49 9.79-9.29 27.63-15.51 48-15.51 30.93 0 56 14.33 56 32z" fill="#f7cca9"/><path d="m248 231.51v144c-5.08 4.81-8 10.46-8 16.49 0-6.03-2.92-11.68-8-16.49v-144c5.08 4.81 8 10.46 8 16.49 0-6.03 2.92-11.68 8-16.49z" fill="#f89f00"/></svg>