<svg id="Flat" height="512" viewBox="0 0 512 512" width="512" xmlns="http://www.w3.org/2000/svg"><path d="m40 72h448v416h-448z" fill="#c3c6c7"/><path d="m24 56h432v400h-432z" fill="#e9eef2"/><path d="m24 56h432v96h-432z" fill="#eb423f"/><g fill="#6a7073"><path d="m112 56v-8a8 8 0 0 0 -16 0v32a8.009 8.009 0 0 0 8 8 8 8 0 0 1 0 16 24.028 24.028 0 0 1 -24-24v-32a24 24 0 0 1 48 0v8z"/><path d="m176 56v-8a8 8 0 0 0 -16 0v32a8.009 8.009 0 0 0 8 8 8 8 0 0 1 0 16 24.028 24.028 0 0 1 -24-24v-32a24 24 0 0 1 48 0v8z"/><path d="m320 56v-8a8 8 0 0 0 -16 0v32a8.009 8.009 0 0 0 8 8 8 8 0 0 1 0 16 24.028 24.028 0 0 1 -24-24v-32a24 24 0 0 1 48 0v8z"/><path d="m384 56v-8a8 8 0 0 0 -16 0v32a8.009 8.009 0 0 0 8 8 8 8 0 0 1 0 16 24.028 24.028 0 0 1 -24-24v-32a24 24 0 0 1 48 0v8z"/><path d="m208 416a56.063 56.063 0 0 1 -56-56v-32a8 8 0 0 1 16 0v32a40 40 0 0 0 80 0 56 56 0 0 1 112 0v16a8 8 0 0 1 -16 0v-16a40 40 0 0 0 -80 0 56.063 56.063 0 0 1 -56 56z"/></g><path d="m328 232h-16v-16a8 8 0 0 0 -16 0v16h-16a8 8 0 0 0 0 16h16v16a8 8 0 0 0 16 0v-16h16a8 8 0 0 0 0-16z" fill="#54a3e3"/><circle cx="352" cy="392" fill="#c3c6c7" r="16"/><path d="m176 192h32a8 8 0 0 1 8 8v80a56 56 0 0 1 -112 0v-80a8 8 0 0 1 8-8h32v16h-24v72a40 40 0 0 0 80 0v-72h-24z" fill="#c3c6c7"/><path d="m135.994 224a8 8 0 0 1 -7.149-11.58l8-16a8 8 0 0 1 14.31 7.156l-8 16a8 8 0 0 1 -7.161 4.424z" fill="#6a7073"/><path d="m184.005 224a8 8 0 0 0 7.149-11.58l-8-16a8 8 0 0 0 -14.311 7.156l8 16a8 8 0 0 0 7.162 4.424z" fill="#6a7073"/></svg>