<svg id="Flat" height="512" viewBox="0 0 512 512" width="512" xmlns="http://www.w3.org/2000/svg"><path d="m40 72h448v416h-448z" fill="#c3c6c7"/><path d="m24 56h432v400h-432z" fill="#e9eef2"/><path d="m24 56h432v96h-432z" fill="#eb423f"/><g fill="#6a7073"><path d="m112 56v-8a8 8 0 0 0 -16 0v32a8.009 8.009 0 0 0 8 8 8 8 0 0 1 0 16 24.028 24.028 0 0 1 -24-24v-32a24 24 0 0 1 48 0v8z"/><path d="m176 56v-8a8 8 0 0 0 -16 0v32a8.009 8.009 0 0 0 8 8 8 8 0 0 1 0 16 24.028 24.028 0 0 1 -24-24v-32a24 24 0 0 1 48 0v8z"/><path d="m320 56v-8a8 8 0 0 0 -16 0v32a8.009 8.009 0 0 0 8 8 8 8 0 0 1 0 16 24.028 24.028 0 0 1 -24-24v-32a24 24 0 0 1 48 0v8z"/><path d="m384 56v-8a8 8 0 0 0 -16 0v32a8.009 8.009 0 0 0 8 8 8 8 0 0 1 0 16 24.028 24.028 0 0 1 -24-24v-32a24 24 0 0 1 48 0v8z"/></g><path d="m144 416a8 8 0 0 1 -8-8v-16a8 8 0 0 1 16 0v16a8 8 0 0 1 -8 8z" fill="#9aa3a8"/><path d="m208 416a8 8 0 0 1 -8-8v-16a8 8 0 0 1 16 0v16a8 8 0 0 1 -8 8z" fill="#9aa3a8"/><path d="m200 192h-48a24.028 24.028 0 0 0 -24 24v24h16v-24a8.009 8.009 0 0 1 8-8h48a8.009 8.009 0 0 1 8 8v24h16v-24a24.028 24.028 0 0 0 -24-24z" fill="#95573a"/><rect fill="#f89f00" height="160" rx="16" width="128" x="112" y="232"/><path d="m144 352a8 8 0 0 1 -8-8v-64a8 8 0 0 1 16 0v64a8 8 0 0 1 -8 8z" fill="#f7cca9"/><path d="m176 352a8 8 0 0 1 -8-8v-64a8 8 0 0 1 16 0v64a8 8 0 0 1 -8 8z" fill="#f7cca9"/><path d="m208 352a8 8 0 0 1 -8-8v-64a8 8 0 0 1 16 0v64a8 8 0 0 1 -8 8z" fill="#f7cca9"/><path d="m248 328h-16v-24a24.028 24.028 0 0 1 24-24h64a24.028 24.028 0 0 1 24 24v24h-16m0 0v-24a8.009 8.009 0 0 0 -8-8h-64a8.009 8.009 0 0 0 -8 8v24" fill="#95573a"/><rect fill="#95573a" height="160" rx="16" transform="matrix(0 1 -1 0 656 80)" width="96" x="240" y="288"/><path d="m248 320h16v96h-16z" fill="#f7cca9"/><path d="m312 320h16v96h-16z" fill="#f7cca9"/></svg>