<svg id="Flat" height="512" viewBox="0 0 512 512" width="512" xmlns="http://www.w3.org/2000/svg"><path d="m40 72h448v416h-448z" fill="#c3c6c7"/><path d="m24 56h432v400h-432z" fill="#e9eef2"/><path d="m24 56h432v96h-432z" fill="#eb423f"/><g fill="#6a7073"><path d="m112 56v-8a8 8 0 0 0 -16 0v32a8.009 8.009 0 0 0 8 8 8 8 0 0 1 0 16 24.028 24.028 0 0 1 -24-24v-32a24 24 0 0 1 48 0v8z"/><path d="m176 56v-8a8 8 0 0 0 -16 0v32a8.009 8.009 0 0 0 8 8 8 8 0 0 1 0 16 24.028 24.028 0 0 1 -24-24v-32a24 24 0 0 1 48 0v8z"/><path d="m320 56v-8a8 8 0 0 0 -16 0v32a8.009 8.009 0 0 0 8 8 8 8 0 0 1 0 16 24.028 24.028 0 0 1 -24-24v-32a24 24 0 0 1 48 0v8z"/><path d="m384 56v-8a8 8 0 0 0 -16 0v32a8.009 8.009 0 0 0 8 8 8 8 0 0 1 0 16 24.028 24.028 0 0 1 -24-24v-32a24 24 0 0 1 48 0v8z"/></g><path d="m240 392h144c0-48.064-19.465-89.052-46.8-104.942a40 40 0 1 0 -50.4 0c-27.335 15.89-46.8 56.878-46.8 104.942z" fill="#2d85cc"/><path d="m96 392h144c0-48.064-19.465-89.052-46.8-104.942a40 40 0 1 0 -50.4 0c-27.335 15.89-46.8 56.878-46.8 104.942z" fill="#2d85cc"/><path d="m263.23 350a32 32 0 1 0 -46.46 0 47.979 47.979 0 0 0 -24.77 42h96a47.979 47.979 0 0 0 -24.77-42z" fill="#54a3e3"/></svg>