<?xml version="1.0"?>
<svg xmlns="http://www.w3.org/2000/svg" xmlns:xlink="http://www.w3.org/1999/xlink" xmlns:svgjs="http://svgjs.com/svgjs" version="1.1" width="512" height="512" x="0" y="0" viewBox="0 0 512 512" style="enable-background:new 0 0 512 512" xml:space="preserve" class=""><g>
<path xmlns="http://www.w3.org/2000/svg" style="" d="M144,318.5H64c-4.418,0-8,3.582-8,8v176c0,4.418,3.582,8,8,8h80c4.418,0,8-3.582,8-8v-176  C152,322.082,148.418,318.5,144,318.5z" fill="#fec7b0" data-original="#fec7b0"/>
<g xmlns="http://www.w3.org/2000/svg">
	<path style="" d="M80,502.5v-176c0-4.418,3.582-8,8-8H64c-4.418,0-8,3.582-8,8v176c0,4.418,3.582,8,8,8h24   C83.582,510.5,80,506.918,80,502.5z" fill="#feaa88" data-original="#feaa88" class=""/>
	<path style="" d="M296,278.5h-80c-4.418,0-8,3.582-8,8v216c0,4.418,3.582,8,8,8h80c4.418,0,8-3.582,8-8v-216   C304,282.082,300.418,278.5,296,278.5z" fill="#feaa88" data-original="#feaa88" class=""/>
</g>
<g xmlns="http://www.w3.org/2000/svg">
	<path style="" d="M232,502.5v-216c0-4.418,3.582-8,8-8h-24c-4.418,0-8,3.582-8,8v216c0,4.418,3.582,8,8,8h24   C235.582,510.5,232,506.918,232,502.5z" fill="#fd8e61" data-original="#fd8e61" class=""/>
	<path style="" d="M448,190.5h-80c-4.418,0-8,3.582-8,8v304c0,4.418,3.582,8,8,8h80c4.418,0,8-3.582,8-8v-304   C456,194.082,452.418,190.5,448,190.5z" fill="#fd8e61" data-original="#fd8e61" class=""/>
</g>
<path xmlns="http://www.w3.org/2000/svg" style="" d="M384,502.5v-304c0-4.418,3.582-8,8-8h-24c-4.418,0-8,3.582-8,8v304c0,4.418,3.582,8,8,8h24  C387.582,510.5,384,506.918,384,502.5z" fill="#fd7239" data-original="#fd7239" class=""/>
<path xmlns="http://www.w3.org/2000/svg" style="" d="M504,510.5H8c-4.418,0-8-3.582-8-8s3.582-8,8-8h496c4.418,0,8,3.582,8,8S508.418,510.5,504,510.5z" fill="#aab4bd" data-original="#aab4bd" class=""/>
<path xmlns="http://www.w3.org/2000/svg" style="" d="M482.589,5.506c-3.44-3.038-8.023-4.452-12.573-3.882l-64,8c-8.769,1.096-14.988,9.093-13.892,17.861  c1.096,8.77,9.102,14.983,17.86,13.892l24.068-3.008C352.648,139.657,252.56,191.285,180.743,217.031  C96.902,247.087,32.145,249.488,31.5,249.508c-8.825,0.275-15.76,7.649-15.492,16.477c0.262,8.667,7.371,15.515,15.983,15.515  c0.164,0,0.328-0.002,0.493-0.007c2.798-0.085,69.531-2.438,157.886-33.921c51.829-18.468,100.393-43.206,144.341-73.527  C380.307,142.587,420.976,105.012,456,62.097V81.5c0,8.836,7.163,16,16,16s16-7.164,16-16v-64  C488,12.911,486.029,8.543,482.589,5.506z" fill="#ff2828" data-original="#55697a" class=""/>
<g xmlns="http://www.w3.org/2000/svg">
</g>
<g xmlns="http://www.w3.org/2000/svg">
</g>
<g xmlns="http://www.w3.org/2000/svg">
</g>
<g xmlns="http://www.w3.org/2000/svg">
</g>
<g xmlns="http://www.w3.org/2000/svg">
</g>
<g xmlns="http://www.w3.org/2000/svg">
</g>
<g xmlns="http://www.w3.org/2000/svg">
</g>
<g xmlns="http://www.w3.org/2000/svg">
</g>
<g xmlns="http://www.w3.org/2000/svg">
</g>
<g xmlns="http://www.w3.org/2000/svg">
</g>
<g xmlns="http://www.w3.org/2000/svg">
</g>
<g xmlns="http://www.w3.org/2000/svg">
</g>
<g xmlns="http://www.w3.org/2000/svg">
</g>
<g xmlns="http://www.w3.org/2000/svg">
</g>
<g xmlns="http://www.w3.org/2000/svg">
</g>
</g></svg>
