<svg xmlns="http://www.w3.org/2000/svg" viewBox="0 0 512 512"><path fill="#f7f6f7" d="M8.241 512h93.721V163.432H30.905C13.837 163.432 0 177.268 0 194.337v309.421A8.242 8.242 0 0 0 8.241 512z"/><path fill="#edebed" d="M71.057 163.432h30.905V512H71.057z"/><path fill="#bdd8fc" d="M101.963 209.79H54.6a8.241 8.241 0 0 0-8.241 8.279l.173 38.045a8.241 8.241 0 0 0 8.241 8.204h47.191V209.79zM101.963 310.675H54.6a8.241 8.241 0 0 0-8.241 8.279l.173 38.045a8.241 8.241 0 0 0 8.241 8.204h47.191v-54.528z"/><path fill="#9dc7fb" d="M71.057 209.79h30.905v54.528H71.057zM71.057 310.676h30.905v54.527H71.057z"/><path fill="#bdd8fc" d="M101.963 411.114H54.6a8.241 8.241 0 0 0-8.241 8.279l.173 38.045a8.241 8.241 0 0 0 8.241 8.204h47.191v-54.528z"/><path fill="#9dc7fb" d="M71.057 411.114h30.905v54.528H71.057z"/><path fill="#f7f6f7" d="M410.037 512h-77.264L256 496.547 179.226 512h-77.753V122.076c0-17.069 13.837-30.905 30.905-30.905h246.754c17.069 0 30.905 13.837 30.905 30.905z"/><path fill="#edebed" d="M379.132 91.171h-30.905c17.069 0 30.905 13.837 30.905 30.905V512h30.905V122.076c0-17.068-13.836-30.905-30.905-30.905z"/><circle cx="256" cy="91.171" r="91.171" fill="#e5979d"/><path fill="#e17f85" d="M256 0a91.44 91.44 0 0 0-15.453 1.316c42.937 7.362 75.718 44.85 75.718 89.855s-32.781 82.493-75.718 89.855A91.43 91.43 0 0 0 256 182.342c50.272 0 91.171-40.899 91.171-91.171S306.272 0 256 0z"/><path fill="#fff" d="M310.085 75.718h-35.541a3.091 3.091 0 0 1-3.091-3.091v-35.54a6.18 6.18 0 0 0-6.181-6.181h-18.543a6.18 6.18 0 0 0-6.181 6.181v35.541a3.091 3.091 0 0 1-3.091 3.091h-35.541a6.18 6.18 0 0 0-6.181 6.181v18.543a6.18 6.18 0 0 0 6.181 6.181h35.541a3.091 3.091 0 0 1 3.091 3.091v35.541a6.18 6.18 0 0 0 6.181 6.181h18.543a6.18 6.18 0 0 0 6.181-6.181v-35.541a3.091 3.091 0 0 1 3.091-3.091h35.541a6.18 6.18 0 0 0 6.181-6.181V81.899a6.182 6.182 0 0 0-6.181-6.181z"/><path fill="#655e67" d="M179.226 360.488h153.548V512H179.226z"/><path fill="#544f56" d="M301.868 360.487h30.905V512h-30.905z"/><path fill="#f7f6f7" d="M248.274 512V360.487a7.726 7.726 0 1 1 15.452 0V512z"/><g><path fill="#f7f6f7" d="M286.905 451.877a7.726 7.726 0 0 1-7.726-7.726v-15.814a7.726 7.726 0 1 1 15.452 0v15.814a7.725 7.725 0 0 1-7.726 7.726z"/></g><g><path fill="#f7f6f7" d="M225.095 451.877a7.726 7.726 0 0 1-7.726-7.726v-15.814a7.726 7.726 0 1 1 15.452 0v15.814a7.726 7.726 0 0 1-7.726 7.726z"/></g><path fill="#bdd8fc" d="M224.579 283.228h-68.47a8.241 8.241 0 0 1-8.241-8.279l.173-38.045a8.241 8.241 0 0 1 8.241-8.204h68.297a8.24 8.24 0 0 1 8.241 8.241v38.045a8.24 8.24 0 0 1-8.241 8.242z"/><path fill="#9dc7fb" d="M224.579 228.7h-30.905a8.24 8.24 0 0 1 8.241 8.241v38.045a8.241 8.241 0 0 1-8.241 8.241h30.905a8.24 8.24 0 0 0 8.241-8.241v-38.045a8.24 8.24 0 0 0-8.241-8.241z"/><path fill="#bdd8fc" d="M287.421 228.7h68.222a8.241 8.241 0 0 1 8.241 8.279l-.173 38.045a8.241 8.241 0 0 1-8.241 8.204h-68.05a8.24 8.24 0 0 1-8.241-8.241v-38.045a8.242 8.242 0 0 1 8.242-8.242z"/><path fill="#9dc7fb" d="M355.643 228.7h-30.905a8.241 8.241 0 0 1 8.241 8.279l-.172 38.045a8.241 8.241 0 0 1-8.241 8.204h30.905a8.241 8.241 0 0 0 8.241-8.204l.172-38.045a8.241 8.241 0 0 0-8.241-8.279z"/><g><path fill="#f7f6f7" d="M503.759 512h-93.721V163.432h71.057c17.069 0 30.905 13.837 30.905 30.905v309.421a8.242 8.242 0 0 1-8.241 8.242z"/><path fill="#edebed" d="M481.095 163.432H450.19c17.069 0 30.905 13.837 30.905 30.905v309.422a8.24 8.24 0 0 1-8.241 8.241h30.905a8.24 8.24 0 0 0 8.241-8.241V194.337c0-17.068-13.837-30.905-30.905-30.905z"/><g fill="#bdd8fc"><path d="M410.037 209.79H457.4a8.241 8.241 0 0 1 8.241 8.279l-.172 38.045a8.241 8.241 0 0 1-8.241 8.204h-47.191M410.037 310.675H457.4a8.241 8.241 0 0 1 8.241 8.279l-.172 38.045a8.241 8.241 0 0 1-8.241 8.204h-47.191zM410.037 411.114H457.4a8.241 8.241 0 0 1 8.241 8.279l-.172 38.045a8.241 8.241 0 0 1-8.241 8.204h-47.191z"/></g></g><path fill="#8b808e" d="M342.045 329.582h-172.09a6.18 6.18 0 0 0-6.181 6.181v18.543a6.18 6.18 0 0 0 6.181 6.181h172.091a6.18 6.18 0 0 0 6.181-6.181v-18.543a6.181 6.181 0 0 0-6.182-6.181z"/><path fill="#766d78" d="M342.045 329.582H311.14a6.181 6.181 0 0 1 6.181 6.181v18.543a6.18 6.18 0 0 1-6.181 6.181h30.905a6.18 6.18 0 0 0 6.181-6.181v-18.543a6.18 6.18 0 0 0-6.181-6.181z"/></svg>