<svg xmlns="http://www.w3.org/2000/svg" viewBox="0 0 64 64"><circle cx="32" cy="30" r="28" fill="#c7e2fc"/><path fill="#669e4f" d="M5.859 19.946A27.984 27.984 0 0 1 10.551 12H15.5a2.5 2.5 0 1 1 0 5h-2a1.5 1.5 0 0 0-1.5 1.5 1.5 1.5 0 0 1-1.5 1.5H6z"/><path fill="#96cc7f" d="M59.841 27H45v-7a2 2 0 0 1 2-2 2 2 0 0 0 2-2v-1a2 2 0 0 1 2-2h3.25l-.066-.086A27.858 27.858 0 0 1 59.841 27z"/><path fill="#78b75b" d="M23 3.478V8c0 1.63.792 3.065 2 3.977v3.102c0 1.109.932 1.898 2.041 1.921A2 2 0 0 1 27 21h-7.366c-.918 0-1.779.465-2.253 1.194V28H32v-3.442c0-.823.638-1.58 1.461-1.559A1.499 1.499 0 0 0 35 21.5a1.5 1.5 0 0 1 1.5-1.5H39a2 2 0 0 0 2-2l-.001-14.522v-.001C38.175 2.52 35.148 2 32 2s-6.175.52-9 1.478z"/><path fill="#758190" d="M54 44v12a2 2 0 1 1-4 0v-4a2 2 0 1 0-4 0v4a2 2 0 1 1-4 0V44a2 2 0 1 1-4 0v-7a5 5 0 0 1 5-5h10a5 5 0 0 1 5 5v7a2 2 0 1 1-4 0z"/><circle cx="48" cy="27" r="5" fill="#758190"/><circle cx="40" cy="29" r="5" fill="#8892a0"/><path fill="#8892a0" d="M46 46v12a2 2 0 1 1-4 0v-4a2 2 0 1 0-4 0v4a2 2 0 1 1-4 0V46a2 2 0 1 1-4 0v-7a5 5 0 0 1 5-5h10a5 5 0 0 1 5 5v7a2 2 0 1 1-4 0z"/><path fill="#758190" d="M10 44v12a2 2 0 1 0 4 0v-4a2 2 0 1 1 4 0v4a2 2 0 1 0 4 0V44a2 2 0 1 0 4 0v-7a5 5 0 0 0-5-5H11a5 5 0 0 0-5 5v7a2 2 0 1 0 4 0z"/><circle cx="16" cy="27" r="5" fill="#758190"/><circle cx="24" cy="29" r="5" fill="#8892a0"/><path fill="#8892a0" d="M18 46v12a2 2 0 1 0 4 0v-4a2 2 0 1 1 4 0v4a2 2 0 1 0 4 0V46a2 2 0 1 0 4 0v-7a5 5 0 0 0-5-5H19a5 5 0 0 0-5 5v7a2 2 0 1 0 4 0z"/><path fill="#a8b0bc" d="M38 48v12a2 2 0 1 1-4 0v-4a2 2 0 1 0-4 0v4a2 2 0 1 1-4 0V48a2 2 0 1 1-4 0v-7a5 5 0 0 1 5-5h10a5 5 0 0 1 5 5v7a2 2 0 1 1-4 0z"/><circle cx="32" cy="31" r="5" fill="#a8b0bc"/><path d="M61 30C61 14.01 47.99 1 32 1S3 14.01 3 30c0 3.658.674 7.218 1.998 10.59V44c0 1.654 1.346 3 3 3 .352 0 .686-.072 1-.184V56c0 1.654 1.346 3 3 3s3-1.346 3-3v-4a1 1 0 0 1 2 0v6c0 1.654 1.346 3 3 3s3-1.346 3-3v-4a1 1 0 0 1 2 0H25v6c0 1.654 1.346 3 3 3s3-1.346 3-3v-4a1 1 0 0 1 2 0v4c0 1.654 1.346 3 3 3s3-1.346 3-3v-6a1 1 0 0 1 2 0v4c0 1.654 1.346 3 3 3s3-1.346 3-3v-6a1 1 0 0 1 2 0v4c0 1.654 1.346 3 3 3s3-1.346 3-3v-9.184c.314.112.648.184 1 .184 1.654 0 3-1.346 3-3v-3.406c1.325-3.375 2-6.936 2-10.594zm-2.428 4.787A6.006 6.006 0 0 0 53 31h-.542a5.98 5.98 0 0 0 1.45-3h5.01c.049.661.082 1.327.082 2 0 1.62-.147 3.218-.428 4.787zM12 27c0-2.206 1.794-4 4-4 1.458 0 2.795.804 3.494 2.052A5.965 5.965 0 0 0 18 29c0 .467.059.919.16 1.356A3.98 3.98 0 0 1 16 31c-2.206 0-4-1.794-4-4zm8 2c0-2.206 1.794-4 4-4 1.458 0 2.795.804 3.493 2.052A5.971 5.971 0 0 0 26 31c0 .467.059.92.16 1.357A3.995 3.995 0 0 1 24 33c-2.206 0-4-1.794-4-4zm8 2c0-2.206 1.794-4 4-4s4 1.794 4 4-1.794 4-4 4-4-1.794-4-4zm8.505-3.95A4.02 4.02 0 0 1 39.998 25c2.206 0 4 1.794 4 4s-1.794 4-4 4c-.772 0-1.518-.23-2.159-.642A5.96 5.96 0 0 0 38 31a5.968 5.968 0 0 0-1.495-3.95zM58.702 26h-4.794c-.478-2.833-2.942-5-5.91-5-.694 0-1.365.132-1.998.358V20a1 1 0 0 1 1-1c1.654 0 3-1.346 3-3v-1a1 1 0 0 1 1-1h2.732a26.86 26.86 0 0 1 4.97 12zm-14.198-.948A4.022 4.022 0 0 1 47.998 23c2.206 0 4 1.794 4 4s-1.794 4-4 4a3.995 3.995 0 0 1-2.16-.643c.101-.437.16-.889.16-1.357a5.965 5.965 0 0 0-1.494-3.948zM52.103 12H51c-1.654 0-3 1.346-3 3v1a1 1 0 0 1-1 1c-1.654 0-3 1.346-3 3v2.544c-.403.36-.752.778-1.048 1.239A5.961 5.961 0 0 0 39.998 23c-2.066 0-3.957 1.086-5.045 2.783A5.957 5.957 0 0 0 33 25.09v-.532c0-.165.071-.337.186-.449a.35.35 0 0 1 .242-.11h.007a2.506 2.506 0 0 0 1.81-.708c.486-.475.755-1.11.755-1.791 0-.275.225-.5.5-.5H39c1.654 0 3-1.346 3-3V4.928A27.101 27.101 0 0 1 52.103 12zM40 4.21V18a1 1 0 0 1-1 1h-2.5a2.502 2.502 0 0 0-2.5 2.5.496.496 0 0 1-.151.358.495.495 0 0 1-.349.142l-.014-.001c-.627.01-1.231.226-1.697.679A2.643 2.643 0 0 0 31 24.559v.532c-.7.118-1.359.355-1.954.694C27.958 24.086 26.066 23 24 23a5.952 5.952 0 0 0-2.954.784 6.015 6.015 0 0 0-1.695-1.749c.094-.016.188-.035.284-.035H27c1.654 0 3-1.346 3-3a3.018 3.018 0 0 0-2.939-3c-.515-.01-1.061-.336-1.061-.92v-3.103a1 1 0 0 0-.397-.798A3.96 3.96 0 0 1 24 8V4.21C26.529 3.424 29.216 3 32 3s5.471.424 8 1.21zM11.044 13H15.5c.827 0 1.5.673 1.5 1.5s-.673 1.5-1.5 1.5h-2a2.502 2.502 0 0 0-2.5 2.5c0 .275-.225.5-.5.5H7.352a27.023 27.023 0 0 1 3.692-6zm-4.496 8H10.5c1.379 0 2.5-1.121 2.5-2.5 0-.275.225-.5.5-.5h2c1.93 0 3.5-1.57 3.5-3.5S17.43 11 15.5 11h-2.662A27.078 27.078 0 0 1 22 4.928V8a5.93 5.93 0 0 0 2 4.449v2.631c0 1.604 1.327 2.887 3.021 2.92A1 1 0 0 1 27 20h-7.365c-.997 0-1.949.409-2.63 1.091A5.99 5.99 0 0 0 16 21c-3.309 0-6 2.691-6 6a5.97 5.97 0 0 0 1.54 4h-.542a6.005 6.005 0 0 0-5.571 3.784A27.184 27.184 0 0 1 5 30c0-3.155.549-6.183 1.548-9zm9.45 28c-1.654 0-3 1.346-3 3v4a1 1 0 0 1-2 0V37h-2v7a1 1 0 0 1-2 0v-7c0-2.206 1.794-4 4-4H16a5.982 5.982 0 0 0 2.942-.786c.178.279.378.541.598.786h-.542c-3.309 0-6 2.691-6 6v7c0 1.654 1.346 3 3 3 .352 0 .686-.072 1-.184v.369a2.943 2.943 0 0 0-1-.185zm8 2c-1.654 0-3 1.346-3 3v4a1 1 0 0 1-2 0V39h-2v7a1 1 0 0 1-2 0v-7c0-2.206 1.794-4 4-4H24a5.985 5.985 0 0 0 2.942-.786c.178.279.378.541.598.786H27c-3.309 0-6 2.691-6 6v7c0 1.654 1.346 3 3 3 .352 0 .686-.072 1-.184v.369A2.954 2.954 0 0 0 23.998 51zM37 60a1 1 0 0 1-2 0v-4c0-1.654-1.346-3-3-3s-3 1.346-3 3v4a1 1 0 0 1-2 0V41h-2v7a1 1 0 0 1-2 0v-7c0-2.206 1.794-4 4-4h10c2.206 0 4 1.794 4 4v7a1 1 0 0 1-2 0v-7h-2v7zm8-2a1 1 0 0 1-2 0v-4c0-1.654-1.346-3-3-3-.352 0-.686.072-1 .184v-.369c.314.113.648.185 1 .185 1.654 0 3-1.346 3-3v-7c0-3.309-2.691-6-6-6h-.54c.22-.245.42-.506.598-.785.892.503 1.9.785 2.94.785H45c2.206 0 4 1.794 4 4v7a1 1 0 0 1-2 0v-7h-2v7zm12-14a1 1 0 0 1-2 0v-7h-2v19a1 1 0 0 1-2 0v-4c0-1.654-1.346-3-3-3-.352 0-.686.072-1 .184v-.369c.314.113.648.185 1 .185 1.654 0 3-1.346 3-3v-7c0-3.309-2.691-6-6-6h-.542c.22-.245.421-.507.598-.786a5.985 5.985 0 0 0 2.942.786H53c2.206 0 4 1.794 4 4z"/></svg>