<svg xmlns="http://www.w3.org/2000/svg" viewBox="0 0 64 64"><path fill="#f4b2b0" d="M38 48v12a2 2 0 1 1-4 0v-4a2 2 0 1 0-4 0v4a2 2 0 1 1-4 0V48a2 2 0 1 1-4 0v-7a5 5 0 0 1 5-5h10a5 5 0 0 1 5 5v7a2 2 0 1 1-4 0z"/><circle cx="32" cy="31" r="5" fill="#f4b2b0"/><path fill="#b3404a" d="M32 1C16.01 1 3 14.01 3 30c0 3.658.674 7.218 1.998 10.59V44c0 1.654 1.346 3 3 3 .352 0 .686-.072 1-.184V56c0 1.654 1.346 3 3 3s3-1.346 3-3v-4a1 1 0 0 1 2 0v6c0 1.654 1.346 3 3 3s3-1.346 3-3v-4a1 1 0 0 1 2 0H25v6c0 1.654 1.346 3 3 3s3-1.346 3-3v-4a1 1 0 0 1 2 0v4c0 1.654 1.346 3 3 3s3-1.346 3-3v-6a1 1 0 0 1 2 0v4c0 1.654 1.346 3 3 3s3-1.346 3-3v-6a1 1 0 0 1 2 0v4c0 1.654 1.346 3 3 3s3-1.346 3-3v-9.184c.314.112.648.184 1 .184 1.654 0 3-1.346 3-3v-3.406c1.325-3.374 2-6.936 2-10.594C61 14.01 47.99 1 32 1zm10 17V4.928A27.101 27.101 0 0 1 52.103 12H51c-1.654 0-3 1.346-3 3v1a1 1 0 0 1-1 1c-1.654 0-3 1.346-3 3v2.544c-.403.36-.752.778-1.048 1.239A5.961 5.961 0 0 0 39.998 23c-2.066 0-3.957 1.086-5.045 2.783A5.957 5.957 0 0 0 33 25.09v-.532c0-.165.071-.337.186-.449a.35.35 0 0 1 .242-.11h.007a2.506 2.506 0 0 0 1.81-.708c.486-.475.755-1.11.755-1.791 0-.275.225-.5.5-.5H39c1.654 0 3-1.346 3-3zm2.504 7.052A4.022 4.022 0 0 1 47.998 23c2.206 0 4 1.794 4 4s-1.794 4-4 4a3.995 3.995 0 0 1-2.16-.643c.101-.437.16-.889.16-1.357a5.965 5.965 0 0 0-1.494-3.948zm-7.999 1.998A4.02 4.02 0 0 1 39.998 25c2.206 0 4 1.794 4 4s-1.794 4-4 4c-.772 0-1.518-.23-2.159-.642A5.96 5.96 0 0 0 38 31a5.968 5.968 0 0 0-1.495-3.95zM36 31c0 2.206-1.794 4-4 4s-4-1.794-4-4 1.794-4 4-4 4 1.794 4 4zM24 4.21C26.529 3.424 29.216 3 32 3s5.471.424 8 1.21V18a1 1 0 0 1-1 1h-2.5a2.502 2.502 0 0 0-2.5 2.5.496.496 0 0 1-.151.358.495.495 0 0 1-.349.142l-.014-.001c-.627.01-1.231.226-1.697.679A2.643 2.643 0 0 0 31 24.559v.532c-.7.118-1.359.355-1.954.694C27.958 24.086 26.066 23 24 23a5.952 5.952 0 0 0-2.954.784 6.015 6.015 0 0 0-1.695-1.749c.094-.016.188-.035.284-.035H27c1.654 0 3-1.346 3-3a3.018 3.018 0 0 0-2.939-3c-.515-.01-1.061-.336-1.061-.92v-3.103a1 1 0 0 0-.397-.798A3.96 3.96 0 0 1 24 8zm2.16 28.147A3.995 3.995 0 0 1 24 33c-2.206 0-4-1.794-4-4s1.794-4 4-4c1.458 0 2.795.804 3.493 2.052A5.971 5.971 0 0 0 26 31c0 .467.059.92.16 1.357zm-8-2.001A3.98 3.98 0 0 1 16 31c-2.206 0-4-1.794-4-4s1.794-4 4-4c1.458 0 2.795.804 3.494 2.052A5.965 5.965 0 0 0 18 29c0 .467.059.919.16 1.356zM11.044 13H15.5c.827 0 1.5.673 1.5 1.5s-.673 1.5-1.5 1.5h-2a2.502 2.502 0 0 0-2.5 2.5c0 .275-.225.5-.5.5H7.352a27.023 27.023 0 0 1 3.692-6zM5.427 34.784A27.184 27.184 0 0 1 5 30c0-3.155.549-6.183 1.548-9H10.5c1.379 0 2.5-1.121 2.5-2.5 0-.275.225-.5.5-.5h2c1.93 0 3.5-1.57 3.5-3.5S17.43 11 15.5 11h-2.662A27.078 27.078 0 0 1 22 4.928V8a5.93 5.93 0 0 0 2 4.449v2.631c0 1.604 1.327 2.887 3.021 2.92A1 1 0 0 1 27 20h-7.365c-.997 0-1.949.409-2.63 1.091A5.99 5.99 0 0 0 16 21c-3.309 0-6 2.691-6 6a5.97 5.97 0 0 0 1.54 4h-.542a6.005 6.005 0 0 0-5.571 3.784zm11.571 14.4a2.966 2.966 0 0 0-1-.184c-1.654 0-3 1.346-3 3v4a1 1 0 0 1-2 0V37h-2v7a1 1 0 0 1-2 0v-7c0-2.206 1.794-4 4-4H16a5.982 5.982 0 0 0 2.942-.786c.178.279.378.541.598.786h-.542c-3.309 0-6 2.691-6 6v7c0 1.654 1.346 3 3 3 .352 0 .686-.072 1-.184zM25 51.185A2.954 2.954 0 0 0 23.998 51c-1.654 0-3 1.346-3 3v4a1 1 0 0 1-2 0V39h-2v7a1 1 0 0 1-2 0v-7c0-2.206 1.794-4 4-4H24a5.985 5.985 0 0 0 2.942-.786c.178.279.378.541.598.786H27c-3.309 0-6 2.691-6 6v7c0 1.654 1.346 3 3 3 .352 0 .686-.072 1-.184zM37 41v19a1 1 0 0 1-2 0v-4c0-1.654-1.346-3-3-3s-3 1.346-3 3v4a1 1 0 0 1-2 0V41h-2v7a1 1 0 0 1-2 0v-7c0-2.206 1.794-4 4-4h10c2.206 0 4 1.794 4 4v7a1 1 0 0 1-2 0v-7zm8-2v19a1 1 0 0 1-2 0v-4c0-1.654-1.346-3-3-3-.352 0-.686.072-1 .184v-.369c.314.113.648.185 1 .185 1.654 0 3-1.346 3-3v-7c0-3.309-2.691-6-6-6h-.54c.22-.245.42-.506.598-.785.892.503 1.9.785 2.94.785H45c2.206 0 4 1.794 4 4v7a1 1 0 0 1-2 0v-7zm12 5a1 1 0 0 1-2 0v-7h-2v19a1 1 0 0 1-2 0v-4c0-1.654-1.346-3-3-3-.352 0-.686.072-1 .184v-.369c.314.113.648.185 1 .185 1.654 0 3-1.346 3-3v-7c0-3.309-2.691-6-6-6h-.542c.22-.245.421-.507.598-.786a5.985 5.985 0 0 0 2.942.786H53c2.206 0 4 1.794 4 4zm2-14c0 1.62-.147 3.218-.428 4.787A6.006 6.006 0 0 0 53 31h-.542a5.98 5.98 0 0 0 1.45-3h5.01c.049.661.082 1.327.082 2zm-.298-4h-4.794c-.478-2.833-2.942-5-5.91-5-.694 0-1.365.132-1.998.358V20a1 1 0 0 1 1-1c1.654 0 3-1.346 3-3v-1a1 1 0 0 1 1-1h2.732a26.86 26.86 0 0 1 4.97 12z"/></svg>