<svg height="512" viewBox="0 0 64 64" width="512" xmlns="http://www.w3.org/2000/svg"><g id="Filled_Outline" data-name="Filled Outline"><path d="m13.393 22.393h4v10h-4z" fill="#870e4f" transform="matrix(.707 -.707 .707 .707 -14.861 18.908)"/><path d="m34.607 43.607h4v10h-4z" fill="#870e4f" transform="matrix(.707 -.707 .707 .707 -23.648 40.121)"/><path d="m10.393 46.607h10v4h-10z" fill="#870e4f" transform="matrix(.707 -.707 .707 .707 -29.861 25.121)"/><circle cx="25.896" cy="37.896" fill="#ad1456" r="13"/><g fill="#870e4f"><path d="m24 49h4v9h-4z"/><ellipse cx="26" cy="58" rx="4" ry="3"/><path d="m24 18h4v10h-4z"/><ellipse cx="26" cy="18" rx="4" ry="3"/><ellipse cx="40.142" cy="52.142" rx="4" ry="3" transform="matrix(.707 -.707 .707 .707 -25.113 43.657)"/><ellipse cx="11.858" cy="23.858" rx="4" ry="3" transform="matrix(.707 -.707 .707 .707 -13.397 15.373)"/><path d="m36 36h10v4h-10z"/><ellipse cx="46" cy="38" rx="3" ry="4"/><path d="m6 36h10v4h-10z"/><ellipse cx="6" cy="38" rx="3" ry="4"/><ellipse cx="11.858" cy="52.142" rx="3" ry="4" transform="matrix(.707 -.707 .707 .707 -33.397 23.657)"/><circle cx="22" cy="34" r="2"/><ellipse cx="26" cy="43" rx="5" ry="2"/></g><path d="m33.893 15.257h21.213v8.485h-21.213z" fill="#1f88e5" transform="matrix(.707 -.707 .707 .707 -.755 37.178)"/><path d="m50.964 6.672h7.071v5.657h-7.071z" fill="#1f88e5" transform="matrix(.707 -.707 .707 .707 9.245 41.32)"/><path d="m35 31-2-2 2-4 4 4z" fill="#1665c0"/><path d="m25 34a3 3 0 1 0 -3 3 3 3 0 0 0 3-3zm-4 0a1 1 0 1 1 1 1 1 1 0 0 1 -1-1z"/><path d="m26 40c-2.89 0-6 .938-6 3s3.11 3 6 3 6-.938 6-3-3.11-3-6-3zm0 4c-2.347 0-3.717-.673-3.975-1 .258-.327 1.628-1 3.975-1s3.717.673 3.975 1c-.258.327-1.628 1-3.975 1z"/><path d="m61.707 10.293-8-8a1 1 0 0 0 -1.414 1.414l1.293 1.293-3.586 3.586-1.293-1.293a1 1 0 1 0 -1.414 1.414l.293.293-14.293 14.293a1 1 0 0 0 0 1.414l.49.49-.442.884a14.1 14.1 0 0 0 -4.341-1.797v-3.1a3.794 3.794 0 0 0 2-3.184c0-2.206-2.243-4-5-4s-5 1.794-5 4a3.794 3.794 0 0 0 2 3.18v3.047a13.892 13.892 0 0 0 -4.633 1.9l-2.14-2.14a3.8 3.8 0 0 0 -.833-3.663c-1.56-1.559-4.416-1.241-6.365.707s-2.266 4.805-.707 6.365a3.526 3.526 0 0 0 2.538.99 4.716 4.716 0 0 0 1.128-.154l2.136 2.137a13.923 13.923 0 0 0 -1.903 4.631h-3.041a3.794 3.794 0 0 0 -3.18-2c-2.206 0-4 2.243-4 5s1.794 5 4 5a3.794 3.794 0 0 0 3.18-2h3.089a13.928 13.928 0 0 0 1.938 4.551l-2.223 2.222a3.8 3.8 0 0 0 -3.662.833c-1.559 1.56-1.242 4.415.707 6.365a5.536 5.536 0 0 0 3.827 1.7 3.524 3.524 0 0 0 2.538-.99 3.8 3.8 0 0 0 .834-3.663l2.258-2.259a13.876 13.876 0 0 0 4.514 1.816v3.245a3.794 3.794 0 0 0 -2 3.18c0 2.206 2.243 4 5 4s5-1.794 5-4a3.794 3.794 0 0 0 -2-3.18v-3.3a13.9 13.9 0 0 0 4.43-1.85l2.342 2.342a3.8 3.8 0 0 0 .834 3.663 3.526 3.526 0 0 0 2.538.99 5.538 5.538 0 0 0 3.827-1.7c1.949-1.95 2.266-4.8.707-6.365a3.8 3.8 0 0 0 -3.663-.833l-2.348-2.348a13.9 13.9 0 0 0 1.861-4.419h3.292a3.794 3.794 0 0 0 3.18 2c2.206 0 4-2.243 4-5s-1.794-5-4-5a3.794 3.794 0 0 0 -3.18 2h-3.252a14.019 14.019 0 0 0 -1.7-4.313l.94-.47.49.49a1 1 0 0 0 1.414 0l14.288-14.293.293.293a1 1 0 0 0 1.414-1.414l-1.293-1.293 3.586-3.586 1.293 1.293a1 1 0 0 0 1.414-1.414zm-55.707 30.707c-1.084 0-2-1.374-2-3s.916-3 2-3 2 1.374 2 3-.916 3-2 3zm40-6c1.084 0 2 1.374 2 3s-.916 3-2 3-2-1.374-2-3 .916-3 2-3zm-10.8-5.217-.98-.98 1.057-2.115 2.038 2.038zm-9.2-13.783c1.626 0 3 .916 3 2s-1.374 2-3 2-3-.916-3-2 1.374-2 3-2zm-16.264 9.979c-.766-.766-.442-2.386.707-3.536a3.6 3.6 0 0 1 2.41-1.123 1.556 1.556 0 0 1 1.126.416c.767.767.443 2.386-.707 3.536s-2.772 1.473-3.536.707zm4.178 1.349a5.838 5.838 0 0 0 1.422-1.406l1.41 1.41a13.981 13.981 0 0 0 -1.413 1.415zm.065 26.936c-.766.767-2.386.443-3.536-.707s-1.473-2.77-.707-3.536 2.387-.444 3.536.707 1.474 2.772.707 3.536zm1.357-4.186a6.258 6.258 0 0 0 -.65-.765 6.166 6.166 0 0 0 -.764-.649l1.508-1.508a14.1 14.1 0 0 0 1.426 1.4zm10.664 9.922c-1.626 0-3-.916-3-2s1.374-2 3-2 3 .916 3 2-1.374 2-3 2zm15.137-10.4a1.556 1.556 0 0 1 1.127.417c.766.766.442 2.386-.707 3.536s-2.77 1.474-3.536.707-.443-2.386.707-3.536a3.592 3.592 0 0 1 2.409-1.124zm-3.059-.94a6.166 6.166 0 0 0 -.764.649 6.258 6.258 0 0 0 -.65.765l-1.62-1.619a14.105 14.105 0 0 0 1.413-1.417zm-.567-13.66h-1.511a1 1 0 0 0 0 2h6.081a6.213 6.213 0 0 0 0 2h-6.081a1 1 0 0 0 0 2h1.487a12.033 12.033 0 0 1 -8.487 8.468v-.468a1 1 0 0 0 -2 0v5.081a6.213 6.213 0 0 0 -2 0v-5.081a1 1 0 0 0 -2 0v.533a12.03 12.03 0 0 1 -8.687-8.533h1.687a1 1 0 0 0 0-2h-6.081a6.213 6.213 0 0 0 0-2h6.081a1 1 0 0 0 0-2h-1.743a12.03 12.03 0 0 1 8.743-8.734v1.734a1 1 0 0 0 2 0v-6.081a6.213 6.213 0 0 0 2 0v6.081a1 1 0 0 0 2 0v-1.676a12.052 12.052 0 0 1 3.445 1.55l-.34.679a1 1 0 0 0 .188 1.154l.293.293-6.294 6.293a1 1 0 0 0 1.415 1.414l6.293-6.293.293.293a1 1 0 0 0 .707.293 1.011 1.011 0 0 0 .447-.105l.623-.312a12.127 12.127 0 0 1 1.441 3.417zm2.489-6.414-4.586-4.586 1.446-1.446.634.635a1 1 0 0 0 1.414-1.414l-.634-.635 1.487-1.487.635.634a1 1 0 0 0 1.414-1.414l-.635-.634 1.488-1.488.634.635a1 1 0 0 0 1.414-1.414l-.634-.635 1.487-1.487.635.634a1 1 0 1 0 1.414-1.414l-.634-.634 2.021-2.022 4.586 4.586zm14-16-2.586-2.586 3.586-3.586 2.586 2.586z"/></g></svg>